<?xml version="1.0" standalone="no"?>
<!DOCTYPE svg PUBLIC "-//W3C//DTD SVG 20010904//EN"
 "http://www.w3.org/TR/2001/REC-SVG-20010904/DTD/svg10.dtd">
<svg version="1.0" xmlns="http://www.w3.org/2000/svg"
 width="640.000000pt" height="640.000000pt" viewBox="0 0 640.000000 640.000000"
 preserveAspectRatio="xMidYMid meet">
<metadata>
Created by potrace 1.14, written by Peter Selinger 2001-2017
</metadata>
<g transform="translate(0.000000,640.000000) scale(0.100000,-0.100000)"
fill="#000000" stroke="none">
<path d="M2998 6396 c-1 -2 -39 -6 -83 -10 -44 -4 -107 -11 -140 -16 -33 -5
-80 -12 -105 -15 -78 -11 -271 -56 -390 -91 -125 -38 -299 -101 -315 -115 -5
-5 -15 -9 -22 -9 -18 0 -217 -97 -292 -142 -34 -21 -65 -38 -67 -38 -9 0 -139
-85 -142 -92 -2 -4 -8 -8 -13 -8 -9 0 -188 -125 -199 -139 -3 -3 -27 -24 -55
-46 -85 -68 -116 -96 -235 -216 -139 -139 -163 -165 -260 -289 -11 -14 -30
-38 -43 -55 -48 -60 -197 -289 -197 -302 0 -7 -3 -13 -7 -13 -5 0 -13 -10 -18
-23 -6 -12 -32 -62 -58 -112 -46 -88 -117 -241 -117 -252 0 -3 -6 -19 -14 -36
-33 -75 -109 -302 -120 -360 -2 -12 -12 -53 -21 -92 -9 -38 -19 -79 -21 -90
-13 -64 -17 -82 -19 -105 -1 -14 -5 -36 -9 -50 -3 -14 -8 -47 -11 -75 -2 -27
-8 -84 -12 -125 -15 -151 -8 -542 13 -680 3 -19 7 -53 10 -75 6 -59 10 -80 34
-190 12 -55 23 -104 24 -110 2 -5 9 -30 16 -55 16 -52 14 -45 24 -90 5 -19 26
-84 48 -145 38 -103 49 -132 84 -213 7 -17 14 -34 15 -37 2 -9 107 -213 139
-270 66 -118 257 -397 294 -430 7 -5 22 -24 34 -42 36 -51 231 -254 311 -323
29 -25 60 -52 69 -61 9 -9 53 -44 97 -78 44 -34 87 -68 95 -74 48 -37 192
-130 235 -151 17 -9 26 -15 20 -16 -10 0 5 -8 195 -105 52 -27 98 -52 101 -58
3 -5 9 -8 13 -8 23 3 36 0 32 -8 -4 -5 2 -8 11 -6 10 1 27 -5 37 -14 11 -9 16
-10 12 -3 -4 6 8 4 26 -7 18 -10 65 -29 103 -42 39 -12 79 -29 89 -38 13 -10
17 -11 12 -3 -7 12 -4 12 15 1 13 -7 26 -13 29 -13 3 -1 4 -3 3 -6 -1 -3 11
-5 25 -6 15 0 38 -3 52 -7 14 -3 29 -6 33 -6 5 -1 6 -5 3 -10 -3 -4 7 -7 21
-5 15 1 32 0 38 -4 13 -8 52 -17 94 -21 11 -1 11 -4 0 -19 -12 -16 -12 -16 5
-1 14 13 25 14 62 6 24 -6 44 -15 44 -20 0 -5 7 -4 15 3 12 10 15 9 15 -6 0
-11 4 -15 8 -9 9 12 62 15 62 4 0 -5 -5 -9 -12 -9 -6 0 -8 -3 -5 -6 4 -4 12
-2 20 4 15 13 57 12 57 -1 0 -5 6 -7 14 -4 7 3 19 0 26 -6 10 -9 11 -9 6 1 -8
13 10 17 18 4 7 -11 685 -9 710 3 12 5 21 3 27 -6 6 -10 9 -10 9 -2 0 7 3 12
8 12 4 -1 9 -1 12 1 15 5 60 12 92 13 21 1 38 5 38 8 0 4 10 5 23 5 12 -1 41
3 65 10 23 7 42 10 42 7 0 -3 6 -1 13 4 6 6 19 11 27 11 21 1 58 10 70 17 6 4
23 -1 38 -11 27 -17 27 -17 10 2 -16 19 -16 20 3 21 12 1 17 -3 13 -10 -3 -7
2 -3 10 7 13 16 20 17 39 9 25 -12 59 -1 38 11 -6 4 -11 2 -11 -4 0 -6 -5 -8
-10 -5 -15 10 0 27 17 21 9 -4 22 -1 29 5 11 9 18 8 31 -2 15 -12 16 -12 9 6
-4 11 -4 17 -1 13 4 -3 22 0 41 8 19 8 34 11 34 7 0 -5 4 -2 9 5 4 7 14 15 22
16 8 2 23 6 34 10 58 22 72 25 90 22 11 -2 19 -9 17 -16 -1 -6 2 -9 8 -5 8 5
8 11 -1 21 -6 7 -15 11 -20 8 -5 -3 -9 0 -9 6 0 7 6 10 13 7 6 -3 20 -8 30
-12 10 -4 17 -3 17 5 0 6 -4 9 -9 5 -5 -3 -12 -1 -15 4 -3 5 3 11 14 14 11 3
20 1 20 -4 0 -5 10 -8 23 -8 16 1 18 2 5 6 -33 8 -18 21 20 18 20 -1 43 2 50
7 8 7 12 6 12 -3 0 -11 2 -11 10 1 5 9 5 19 -2 27 -6 8 -8 17 -4 20 4 4 11 1
16 -7 8 -13 11 -13 22 -1 7 8 8 11 2 8 -6 -3 -11 0 -11 7 0 8 6 12 14 9 7 -3
13 0 13 7 0 7 7 10 15 6 9 -3 18 1 21 8 3 8 12 17 20 20 12 4 14 0 10 -17 -3
-12 -3 -16 0 -9 3 6 12 12 20 12 8 0 14 5 14 11 0 5 -4 7 -10 4 -17 -11 -11 7
7 20 20 15 46 8 36 -9 -3 -6 -2 -7 3 -3 5 5 9 15 9 23 0 16 103 79 113 69 8
-8 -31 -34 -41 -28 -5 3 -17 -4 -28 -16 -11 -12 -25 -18 -31 -15 -7 4 -8 2 -4
-4 4 -6 14 -8 23 -5 10 4 14 2 9 -5 -3 -6 -2 -13 3 -17 6 -3 8 3 6 13 -4 24
14 53 22 35 6 -17 24 -17 20 0 -1 6 4 11 11 10 6 -2 13 3 14 10 0 6 2 17 3 22
2 6 3 16 4 23 0 6 7 12 14 12 6 0 32 16 56 35 24 19 50 35 57 35 8 0 14 4 14
9 0 5 14 14 30 20 17 5 30 17 30 26 0 9 4 14 10 10 5 -3 6 -13 3 -23 -4 -13
-2 -13 10 3 15 19 16 19 29 2 13 -18 14 -17 14 2 0 11 -4 17 -8 15 -4 -3 -8 0
-8 7 0 8 -4 8 -15 -1 -9 -8 -15 -8 -15 -2 0 13 36 25 50 17 6 -4 17 -1 25 5
12 10 15 10 15 0 0 -8 3 -11 6 -8 3 4 0 16 -6 28 -10 19 -8 25 11 43 13 12 28
22 34 22 5 1 9 7 7 14 -2 8 3 11 13 8 10 -4 15 -1 15 11 0 14 2 15 9 2 6 -8 8
-17 6 -20 -2 -3 5 -6 16 -6 18 0 18 2 5 12 -17 12 -21 40 -7 48 5 3 14 -1 21
-9 7 -8 17 -15 23 -15 6 0 3 6 -7 13 -16 12 -13 53 3 42 4 -2 15 9 25 25 19
33 60 62 50 35 -3 -8 -10 -13 -14 -10 -5 3 -12 0 -16 -6 -5 -8 -3 -9 6 -4 8 5
11 3 8 -6 -3 -8 -11 -14 -18 -14 -7 0 -14 -7 -15 -16 -2 -9 3 -16 11 -16 7 0
12 5 11 11 -1 6 4 10 10 9 7 -2 12 0 12 5 -3 19 2 33 11 27 6 -4 7 1 3 11 -5
12 -3 15 6 9 10 -6 11 -3 2 14 -8 14 -8 21 -1 21 6 0 13 -7 16 -15 4 -8 10
-15 16 -15 5 0 7 4 4 9 -3 5 10 23 29 40 20 17 31 31 25 31 -5 0 -13 0 -17 0
-5 0 -8 -6 -8 -12 0 -7 -8 -12 -17 -12 -9 1 -14 -4 -12 -11 3 -7 0 -16 -6 -20
-8 -5 -11 0 -8 14 1 12 7 20 11 19 5 -2 15 10 23 25 8 15 19 25 24 22 6 -4 10
1 10 9 0 8 4 17 9 21 6 3 8 -7 6 -22 -2 -16 -2 -22 1 -15 3 6 11 9 16 6 7 -5
8 -2 2 7 -15 24 -10 43 19 71 15 15 27 31 27 37 0 5 7 12 16 15 27 10 29 7 6
-14 -22 -21 -30 -36 -13 -26 5 4 11 3 14 -1 2 -5 2 -2 1 4 -2 7 4 17 13 22 14
8 15 12 4 25 -9 11 -10 16 -2 16 6 0 11 7 11 15 0 8 9 19 20 25 11 6 18 15 15
21 -4 5 -1 8 6 7 7 -2 13 4 14 12 0 8 8 14 18 14 14 -2 15 1 6 12 -9 11 -7 14
10 14 11 0 21 4 21 10 0 5 -8 7 -17 3 -15 -5 -15 -3 3 18 24 27 105 153 171
264 7 11 20 37 30 58 10 20 21 37 25 37 5 0 8 4 8 9 0 5 24 60 54 122 64 136
113 260 154 389 30 93 77 270 86 320 5 30 17 97 23 125 2 11 6 39 9 61 2 23 6
51 9 62 20 106 28 575 12 712 -4 36 -10 90 -13 120 -3 30 -7 62 -10 69 -3 8
-7 35 -10 60 -3 26 -9 62 -14 81 -5 19 -11 47 -14 61 -9 51 -88 332 -105 374
-5 11 -32 79 -61 150 -49 121 -146 323 -160 335 -3 3 -16 25 -29 50 -22 43
-188 299 -200 310 -3 3 -33 39 -66 80 -88 111 -108 133 -250 276 -294 295
-617 513 -1010 681 -109 47 -307 118 -352 127 -10 1 -25 5 -33 8 -18 7 -177
47 -205 52 -11 2 -40 7 -65 11 -25 4 -54 9 -65 12 -27 5 -58 9 -135 18 -36 4
-78 9 -95 12 -34 5 -491 13 -497 9z m2236 -5706 c-6 -6 -18 -8 -28 -4 -15 6
-15 7 1 20 21 15 44 1 27 -16z m-624 -386 c8 -8 9 -14 4 -13 -5 1 -11 0 -14
-1 -3 -1 -18 -3 -33 -4 -26 -2 -27 -1 -11 11 9 7 21 10 25 7 5 -3 9 0 9 5 0
15 5 14 20 -5z"/>
<path d="M5769 1250 c-13 -10 -20 -19 -16 -20 4 0 17 9 29 20 28 26 17 26 -13
0z"/>
<path d="M5721 1202 c-7 -14 -6 -18 8 -18 9 0 18 8 18 18 1 10 -2 18 -7 18 -5
0 -14 -8 -19 -18z"/>
<path d="M5640 1116 c0 -2 7 -9 15 -16 9 -7 15 -8 15 -2 0 5 -7 12 -15 16 -8
3 -15 4 -15 2z"/>
<path d="M5629 1098 c-6 -12 -4 -46 2 -42 4 2 5 12 2 21 -5 12 -3 14 7 8 9 -5
11 -4 6 3 -7 11 -14 15 -17 10z"/>
<path d="M5655 1069 c-4 -6 -5 -12 -2 -15 2 -3 7 2 10 11 7 17 1 20 -8 4z"/>
<path d="M5400 840 c8 -5 20 -10 25 -10 6 0 3 5 -5 10 -8 5 -19 10 -25 10 -5
0 -3 -5 5 -10z"/>
<path d="M5360 821 c0 -6 4 -13 10 -16 6 -3 7 1 4 9 -7 18 -14 21 -14 7z"/>
<path d="M5315 760 c3 -5 8 -10 11 -10 2 0 4 5 4 10 0 6 -5 10 -11 10 -5 0 -7
-4 -4 -10z"/>
<path d="M5280 756 c0 -2 7 -9 15 -16 9 -7 15 -8 15 -2 0 5 -7 12 -15 16 -8 3
-15 4 -15 2z"/>
<path d="M5256 717 c3 -10 9 -15 12 -12 3 3 0 11 -7 18 -10 9 -11 8 -5 -6z"/>
<path d="M5095 601 c-8 -15 14 -24 29 -12 7 6 16 8 19 4 4 -3 7 -1 7 5 0 15
-17 16 -25 2 -3 -5 -11 -10 -16 -10 -6 0 -7 5 -4 10 3 6 4 10 1 10 -3 0 -7 -4
-11 -9z"/>
<path d="M5050 571 c0 -6 4 -12 8 -15 5 -3 9 1 9 9 0 8 -4 15 -9 15 -4 0 -8
-4 -8 -9z"/>
<path d="M5081 573 c-1 -17 16 -25 25 -12 4 7 3 9 -4 5 -5 -3 -13 0 -15 6 -4
9 -6 10 -6 1z"/>
<path d="M4999 534 c-18 -18 -36 -31 -41 -28 -4 3 -8 0 -8 -5 0 -20 20 -11 49
21 25 28 31 31 45 19 23 -19 27 -10 5 11 -16 15 -19 14 -50 -18z"/>
<path d="M5015 521 c-3 -5 0 -13 6 -17 7 -4 9 -3 5 4 -3 5 0 13 6 15 9 4 10 6
1 6 -6 1 -14 -3 -18 -8z"/>
<path d="M4970 460 c0 -5 5 -10 11 -10 5 0 7 5 4 10 -3 6 -8 10 -11 10 -2 0
-4 -4 -4 -10z"/>
<path d="M4781 394 c0 -11 3 -14 6 -6 3 7 2 16 -1 19 -3 4 -6 -2 -5 -13z"/>
<path d="M4820 380 c-8 -5 -10 -10 -5 -10 6 0 17 5 25 10 8 5 11 10 5 10 -5 0
-17 -5 -25 -10z"/>
<path d="M4677 344 c-3 -5 1 -15 9 -22 16 -14 18 -5 5 17 -5 7 -11 9 -14 5z"/>
<path d="M4713 329 c-2 -23 3 -25 10 -4 4 8 3 16 -1 19 -4 3 -9 -4 -9 -15z"/>
<path d="M4655 300 c-3 -5 -1 -10 4 -10 6 0 11 5 11 10 0 6 -2 10 -4 10 -3 0
-8 -4 -11 -10z"/>
<path d="M4397 213 c-4 -6 0 -13 8 -17 8 -3 17 0 21 6 4 6 3 8 -4 4 -5 -3 -12
-1 -14 6 -3 8 -6 9 -11 1z"/>
<path d="M4341 191 c-7 -5 -9 -11 -5 -14 5 -3 15 1 22 9 14 16 5 18 -17 5z"/>
<path d="M4302 170 c-7 -12 -8 -20 -2 -20 5 0 10 5 10 11 0 8 6 7 18 -2 16
-13 16 -13 2 6 -8 11 -15 21 -15 22 0 1 -6 -7 -13 -17z"/>
<path d="M4267 164 c-8 -8 3 -34 15 -34 7 0 6 5 -1 13 -6 8 -8 17 -4 20 3 4 4
7 1 7 -2 0 -7 -3 -11 -6z"/>
<path d="M4224 139 c-3 -6 -1 -16 5 -22 9 -9 11 -8 6 6 -4 9 -4 17 0 17 4 0
14 -8 22 -17 13 -16 13 -16 3 5 -12 24 -25 28 -36 11z"/>
<path d="M4173 125 c0 -8 4 -15 9 -15 4 0 8 4 8 9 0 6 -4 12 -8 15 -5 3 -9 -1
-9 -9z"/>
<path d="M4087 89 c4 -13 8 -18 11 -10 2 7 -1 18 -6 23 -8 8 -9 4 -5 -13z"/>
<path d="M3993 67 c0 -12 1 -16 4 -9 3 6 9 12 14 12 6 0 7 -5 3 -12 -4 -7 -3
-8 4 -4 16 10 15 14 -6 25 -15 8 -18 5 -19 -12z"/>
<path d="M3938 69 c-10 -5 -18 -7 -18 -4 0 3 -12 -1 -27 -8 -16 -8 -33 -12
-40 -10 -6 2 -14 0 -17 -5 -3 -4 10 -8 29 -8 18 0 31 4 29 8 -3 5 -2 8 3 9 27
2 47 9 56 18 14 14 7 14 -15 0z"/>
<path d="M2550 40 c0 -5 5 -10 10 -10 6 0 10 5 10 10 0 6 -4 10 -10 10 -5 0
-10 -4 -10 -10z"/>
<path d="M3935 39 c-3 -4 2 -6 10 -5 21 3 28 13 10 13 -9 0 -18 -4 -20 -8z"/>
<path d="M3763 33 c-15 -5 -17 -23 -4 -23 5 0 11 7 15 15 3 8 4 15 3 14 -1 0
-8 -3 -14 -6z"/>
<path d="M3794 29 c-4 -7 -3 -9 4 -5 5 3 12 0 15 -6 2 -7 7 -10 11 -7 4 3 0
12 -8 18 -11 9 -16 9 -22 0z"/>
<path d="M3683 17 c-3 -5 -2 -11 1 -14 3 -4 6 -1 6 6 0 7 4 10 8 7 4 -2 14 -1
22 4 11 7 9 9 -8 7 -13 -1 -26 -5 -29 -10z"/>
<path d="M2757 9 c7 -7 15 -10 18 -7 3 3 -2 9 -12 12 -14 6 -15 5 -6 -5z"/>
<path d="M3650 9 c0 -5 5 -7 10 -4 6 3 10 8 10 11 0 2 -4 4 -10 4 -5 0 -10 -5
-10 -11z"/>
</g>
</svg>
