<?xml version="1.0" standalone="no"?>
<!DOCTYPE svg PUBLIC "-//W3C//DTD SVG 20010904//EN"
 "http://www.w3.org/TR/2001/REC-SVG-20010904/DTD/svg10.dtd">
<svg version="1.0" xmlns="http://www.w3.org/2000/svg"
 width="2400.000000pt" height="2400.000000pt" viewBox="0 0 2400.000000 2400.000000"
 preserveAspectRatio="xMidYMid meet">

<g transform="translate(0.000000,2400.000000) scale(0.100000,-0.100000)"
fill="#000000" stroke="none">
<path d="M11620 23994 c-2791 -106 -5413 -1184 -7569 -3111 -226 -202 -732
-708 -934 -934 -1602 -1793 -2628 -3927 -2981 -6204 -94 -607 -130 -1083 -130
-1745 0 -662 36 -1138 130 -1745 353 -2277 1379 -4411 2981 -6204 202 -226
708 -732 934 -934 1699 -1518 3714 -2524 5854 -2921 730 -136 1327 -190 2095
-190 768 0 1365 54 2095 190 2025 376 3955 1305 5590 2690 472 400 1029 957
1429 1429 1595 1883 2568 4120 2821 6490 46 437 59 685 59 1195 0 768 -54
1365 -190 2095 -397 2140 -1403 4155 -2921 5854 -202 226 -708 732 -934 934
-1427 1276 -3058 2181 -4833 2682 -785 222 -1557 354 -2386 410 -215 15 -911
26 -1110 19z m830 -2184 c358 -16 688 -46 1010 -91 1957 -272 3732 -1085 5167
-2366 140 -124 602 -586 726 -726 874 -978 1535 -2125 1952 -3382 686 -2067
686 -4423 0 -6490 -417 -1257 -1078 -2404 -1952 -3382 -124 -140 -586 -602
-726 -726 -2240 -2000 -5318 -2843 -8437 -2311 -1797 306 -3471 1110 -4817
2311 -140 124 -602 586 -726 726 -1041 1166 -1776 2562 -2161 4102 -407 1631
-407 3419 0 5050 385 1540 1120 2936 2161 4102 124 140 586 602 726 726 1674
1494 3817 2351 6142 2456 265 12 679 12 935 1z"/>
<path d="M13456 19869 c-490 -52 -902 -304 -1187 -727 -232 -345 -318 -782
-239 -1219 89 -494 427 -937 895 -1171 360 -179 817 -209 1225 -80 475 150
883 556 1045 1040 101 303 106 702 12 1013 -146 482 -542 896 -1018 1063 -215
76 -492 106 -733 81z"/>
<path d="M12035 14471 c-869 -142 -1713 -279 -1876 -306 l-296 -48 -66 -207
c-37 -114 -69 -213 -72 -221 -4 -12 43 -14 292 -14 340 -1 384 -8 543 -87 148
-74 303 -251 335 -383 39 -162 15 -430 -75 -820 -56 -247 -49 -223 -925 -3235
-442 -1521 -817 -2819 -834 -2885 -100 -403 -134 -756 -96 -1010 51 -342 226
-650 489 -861 380 -305 923 -411 1532 -299 883 164 1740 828 2558 1985 182
256 542 825 570 900 5 11 -42 43 -180 124 -102 60 -189 105 -193 100 -5 -5
-58 -83 -119 -174 -312 -467 -589 -823 -844 -1086 -284 -292 -443 -394 -618
-394 -107 0 -228 87 -287 207 -25 52 -28 67 -27 153 2 119 49 354 138 685 35
132 573 2004 1194 4160 622 2156 1134 3932 1137 3948 l7 27 -353 -1 -354 -1
-1580 -257z"/>
</g>
</svg>
